<?xml version="1.0" encoding="UTF-8"?><svg xmlns="http://www.w3.org/2000/svg" xmlns:xlink="http://www.w3.org/1999/xlink" viewBox="0 0 1080 1080"><defs><style>.cls-1{fill:url(#linear-gradient-2);}.cls-2{fill:url(#linear-gradient-6);}.cls-3{fill:url(#linear-gradient-5);}.cls-4{fill:#141414;}.cls-5{fill:url(#linear-gradient-3);}.cls-6{fill:url(#linear-gradient);}.cls-7{fill:url(#linear-gradient-4);}</style><linearGradient id="linear-gradient" x1="60.52" y1="545.43" x2="1040.14" y2="545.43" gradientUnits="userSpaceOnUse"><stop offset="0" stop-color="#ed8172"/><stop offset=".38" stop-color="#e5997a"/><stop offset=".74" stop-color="#ea976f"/><stop offset="1" stop-color="#ed8172"/></linearGradient><linearGradient id="linear-gradient-2" x1="235.26" y1="614.59" x2="863" y2="614.59" gradientUnits="userSpaceOnUse"><stop offset="0" stop-color="#fff"/><stop offset=".51" stop-color="#eae1d5"/><stop offset="1" stop-color="#f2e7e9"/></linearGradient><linearGradient id="linear-gradient-3" x1="378.84" y1="319.16" x2="494.32" y2="319.16" xlink:href="#linear-gradient"/><linearGradient id="linear-gradient-4" x1="610.35" y1="321.91" x2="725.83" y2="321.91" xlink:href="#linear-gradient"/><linearGradient id="linear-gradient-5" x1="496.14" y1="353.04" x2="604.95" y2="353.04" xlink:href="#linear-gradient"/><linearGradient id="linear-gradient-6" x1="510.97" y1="425.39" x2="590.4" y2="425.39" xlink:href="#linear-gradient"/></defs><g id="Layer_5"><path class="cls-6" d="m206.89,602.85c-41.27-22.64-112.01-70.48-137.26-151.9-4.61-14.87-17.98-57.95,0-73.21,16.1-13.66,45.64,4.93,122.62,20.13,24.04,4.75,44.29,7.5,58.56,9.15-.63-28.1.8-68.4,10.98-115.3,14.89-68.62,36.62-168.78,124.45-228.77,78.52-53.63,185.15-58.27,269.03-20.13,114.52,52.07,149.86,167.14,166.54,221.45,21.23,69.14,20.22,129.93,16.47,168.37,13.42-10.99,32.92-24.88,58.56-36.6,19.57-8.95,98.45-45,129.94-14.64,23.85,22.99,9.23,73.17,5.49,86.02-25.7,88.24-119.66,127.66-144.58,137.26.53,10.26,1.24,25.49,1.83,43.92,2.16,68.06,4.25,133.68-1.83,173.86-15.58,103.01-104.97,172.19-118.96,183.01-126.06,97.55-278.25,63.16-314.78,54.9-47.23-10.67-145.72-32.93-206.8-120.79-13.12-18.86-22.96-38.52-30.33-58.04-23.7-62.77-21.8-124.02-20.92-152.43,1.17-37.56,7.35-68.46,12.81-89.68l-1.83-36.6Z"/></g><g id="Layer_6"><path class="cls-1" d="m248.61,901.69c-9.34-26.16-18.96-73.68-9.4-124.85,6.62-35.43,18.35-50.79,52.11-132.04,19.43-46.76,29.14-70.14,34.74-88.63,38.04-125.64-33.75-182.69,5.21-289.41,6.45-17.66,32.59-89.27,88.59-99.48,43.94-8.02,93.65,24.05,126.8,79.59,5.66-6.63,13.8-15.58,24.32-25.32,22.19-20.55,55.4-51.3,86.85-54.26,49.14-4.64,105.58,57.45,121.59,121.19,15.5,61.72-19.97,72.96-17.37,168.22,2.32,85.24,32.89,155.66,41.69,175.46,22.83,51.37,34.33,52.13,46.9,92.25,16.29,52.02,16.07,111.78,1.74,157.37-44.97,143.05-237.93,175.15-251.86,177.26-137.55,20.9-309.58-38.72-351.9-157.32Z"/></g><g id="Layer_7"><ellipse class="cls-4" cx="436.58" cy="319.18" rx="51.24" ry="64.97"/><path class="cls-5" d="m487.82,319.18c-.03,15.23-3.82,30.65-12.25,43.7-4.21,6.48-9.59,12.38-16.23,16.78-6.6,4.42-14.5,7.29-22.76,7.72-8.24.45-16.7-1.55-24.09-5.49-7.42-3.93-13.75-9.69-18.76-16.31-5.02-6.64-8.76-14.17-11.22-22.05-1.21-3.95-2.15-7.98-2.75-12.05-.59-4.08-.89-8.19-.93-12.3.05-8.22,1.2-16.47,3.66-24.36,2.45-7.89,6.19-15.42,11.21-22.06,5-6.63,11.34-12.39,18.76-16.32,7.39-3.95,15.86-5.94,24.11-5.49,8.26.43,16.18,3.3,22.77,7.74,6.65,4.41,12.02,10.31,16.23,16.8,8.43,13.05,12.21,28.48,12.24,43.7Zm0,0c-.03-3.82-.32-7.63-.87-11.4-.55-3.77-1.43-7.49-2.55-11.13-2.27-7.26-5.73-14.15-10.29-20.14-4.55-5.98-10.26-11.08-16.77-14.46-6.5-3.39-13.74-5-20.77-4.57-7.05.44-13.73,2.93-19.43,6.81-5.73,3.86-10.48,9.1-14.24,14.94-3.75,5.86-6.54,12.36-8.36,19.12-1.81,6.77-2.72,13.79-2.72,20.83,0,3.52.21,7.04.68,10.52.45,3.48,1.1,6.94,2.02,10.32,1.81,6.77,4.6,13.27,8.35,19.13,3.76,5.85,8.51,11.09,14.25,14.95,5.7,3.89,12.4,6.38,19.45,6.81,7.04.44,14.28-1.18,20.78-4.58,6.52-3.39,12.22-8.49,16.77-14.48,4.57-5.99,8.02-12.88,10.29-20.15,1.11-3.64,2-7.36,2.54-11.13.55-3.77.83-7.59.87-11.4Z"/><ellipse class="cls-4" cx="668.09" cy="321.92" rx="51.24" ry="64.97"/><path class="cls-7" d="m719.33,321.92c-.03,15.23-3.82,30.65-12.25,43.7-4.21,6.48-9.59,12.38-16.23,16.78-6.6,4.42-14.5,7.29-22.76,7.72-8.24.45-16.7-1.55-24.09-5.49-7.42-3.93-13.75-9.69-18.76-16.31-5.02-6.64-8.76-14.17-11.22-22.05-1.21-3.95-2.15-7.98-2.75-12.05-.59-4.08-.89-8.19-.93-12.3.05-8.22,1.2-16.47,3.66-24.36,2.45-7.89,6.19-15.42,11.21-22.06,5-6.63,11.34-12.39,18.76-16.32,7.39-3.95,15.86-5.94,24.11-5.49,8.26.43,16.18,3.3,22.77,7.74,6.65,4.41,12.02,10.31,16.23,16.8,8.43,13.05,12.21,28.48,12.24,43.7Zm0,0c-.03-3.82-.32-7.63-.87-11.4-.55-3.77-1.43-7.49-2.55-11.13-2.27-7.26-5.73-14.15-10.29-20.14-4.55-5.98-10.26-11.08-16.77-14.46-6.5-3.39-13.74-5-20.77-4.57-7.05.44-13.73,2.93-19.43,6.81-5.73,3.86-10.48,9.1-14.24,14.94-3.75,5.86-6.54,12.36-8.36,19.12-1.81,6.77-2.72,13.79-2.72,20.83,0,3.52.21,7.04.68,10.52.45,3.48,1.1,6.94,2.02,10.32,1.81,6.77,4.6,13.27,8.35,19.13,3.76,5.85,8.51,11.09,14.25,14.95,5.7,3.89,12.4,6.38,19.45,6.81,7.04.44,14.28-1.18,20.78-4.58,6.52-3.39,12.22-8.49,16.77-14.48,4.57-5.99,8.02-12.88,10.29-20.15,1.11-3.64,2-7.36,2.54-11.13.55-3.77.83-7.59.87-11.4Z"/><path class="cls-3" d="m496.14,386.89c.99-7.72,4.05-23.45,15.47-39.35,12.31-17.14,27.65-25.17,34.77-28.37,7.16,1.85,22.73,6.92,36.6,21.05,17.56,17.88,21.09,38.77,21.96,45.75-36.27.31-72.54.61-108.8.92Z"/><path class="cls-2" d="m511.61,398.79h78.7c.09,1.71.16,4.22,0,7.24-.49,9.23-1.48,27.98-14.64,38.52-11.16,8.94-27.85,9.41-40.26,3.66-17.04-7.89-27.14-28.05-23.79-49.41Z"/></g></svg>